<svg xmlns="http://www.w3.org/2000/svg" version="1.1" xmlns:xlink="http://www.w3.org/1999/xlink" xmlns:svgjs="http://svgjs.dev/svgjs" width="1500" height="1500" viewBox="0 0 1500 1500"><rect width="1500" height="1500" fill="#000000"></rect><g transform="matrix(0.6666666666666666,0,0,0.6666666666666666,250,437.6666666666667)"><svg viewBox="0 0 512 320" data-background-color="#362c5f" preserveAspectRatio="xMidYMid meet" height="937" width="1500" xmlns="http://www.w3.org/2000/svg" xmlns:xlink="http://www.w3.org/1999/xlink"><g id="tight-bounds" transform="matrix(1,0,0,1,0,0)"><svg viewBox="0 0 512 320" height="320" width="512"><g><svg></svg></g><g><svg viewBox="0 0 512 320" height="320" width="512"><g><path transform="translate(256,160) scale(160,160)" d="M-1 0c0-0.552 0.448-1 1-1 0.552 0 1 0.448 1 1 0 0.552-0.448 1-1 1-0.552 0-1-0.448-1-1z" fill="#ffffff" fill-rule="nonzero" stroke="none" stroke-width="1" stroke-linecap="butt" stroke-linejoin="miter" stroke-miterlimit="10" stroke-dasharray="" stroke-dashoffset="0" font-family="none" font-weight="none" font-size="none" text-anchor="none" style="mix-blend-mode: normal" data-fill-palette-color="tertiary"></path></g><g transform="matrix(1,0,0,1,153.6,85.52011615235494)"><svg viewBox="0 0 204.8 148.9597676952901" height="148.9597676952901" width="204.8"><g><svg viewBox="0 0 204.8 148.9597676952901" height="148.9597676952901" width="204.8"><g transform="matrix(1,0,0,1,0,92.06311240518772)"><svg viewBox="0 0 204.8 56.896655290102395" height="56.896655290102395" width="204.8"><g id="textblocktransform"><svg viewBox="0 0 204.8 56.896655290102395" height="56.896655290102395" width="204.8" id="textblock"><g><svg viewBox="0 0 204.8 56.896655290102395" height="56.896655290102395" width="204.8"><g transform="matrix(1,0,0,1,0,0)"><svg width="204.8" viewBox="2.4 -40 146.48999999999998 40.7" height="56.896655290102395" data-palette-color="#35185a"><path d="M6.15 0L2.4 0 3.1-40 6.7-40 15-18.45 23.3-40 26.95-40 27.65 0 23.9 0 23.35-30.4 16.7-12.55 13.3-12.55 6.7-30.4 6.15 0ZM45 0.7L45 0.7Q42.95 0.7 42.17-0.03 41.4-0.75 41.4-2.7L41.4-2.7Q41.4-4.6 42.17-5.33 42.95-6.05 45-6.05L45-6.05Q47.1-6.05 47.85-5.33 48.6-4.6 48.6-2.7L48.6-2.7Q48.6-0.75 47.85-0.03 47.1 0.7 45 0.7ZM65.75 0L61.85 0 73-40 77.05-40 88.15 0 84.3 0 75-33.9 65.75 0ZM83.3-10.25L66.7-10.25 67.59-13.7 82.4-13.7 83.3-10.25ZM104.99 0.7L104.99 0.7Q102.94 0.7 102.17-0.03 101.39-0.75 101.39-2.7L101.39-2.7Q101.39-4.6 102.17-5.33 102.94-6.05 104.99-6.05L104.99-6.05Q107.09-6.05 107.84-5.33 108.59-4.6 108.59-2.7L108.59-2.7Q108.59-0.75 107.84-0.03 107.09 0.7 104.99 0.7ZM131.59-19.45L125.14-19.45 125.14-22.9 129.84-22.9 144.19-40 148.84-40 131.59-19.45ZM127.64 0L123.89 0 123.89-40 127.64-40 127.64 0ZM148.89 0L144.54 0 130.34-21.1 132.84-23.95 148.89 0Z" opacity="1" transform="matrix(1,0,0,1,0,0)" fill="#000000" class="wordmark-text-0" data-fill-palette-color="quaternary" id="text-0"></path></svg></g></svg></g></svg></g></svg></g><g transform="matrix(1,0,0,1,39.43763623550956,0)"><svg viewBox="0 0 125.9247275289809 78.63117761092151" height="78.63117761092151" width="125.9247275289809"><g><svg xmlns="http://www.w3.org/2000/svg" xmlns:xlink="http://www.w3.org/1999/xlink" version="1.1" x="0" y="0" viewBox="0 18.788999999999998 100.00000000000001 62.442999999999984" enable-background="new 0 0 100 100" xml:space="preserve" width="125.9247275289809" height="78.63117761092151" class="icon-icon-0" data-fill-palette-color="quaternary" id="icon-0"><g fill="#35185a" data-fill-palette-color="quaternary"><g fill="#35185a" data-fill-palette-color="quaternary"><path d="M97.938 68.771h-6.316V20.81c0-1.115-0.905-2.021-2.021-2.021H10.399c-1.115 0-2.021 0.906-2.021 2.021v47.961H2.062C0.924 68.771 0 69.694 0 70.832v2.084c0 0.103 0.008 0.204 0.022 0.306 0.527 3.521 3.348 7.447 7.159 7.922 0.083 0.01 0.169 0.017 0.252 0.017l84.51 0.071h0.003c4.404 0 7.604-4.197 8.041-8.085 0.009-0.075 0.013-0.152 0.013-0.23v-2.084C100 69.694 99.076 68.771 97.938 68.771zM12.42 22.831h75.16v45.939H59.985c-0.133 0-0.262 0.016-0.386 0.04H41.16c-0.128-0.025-0.261-0.04-0.396-0.04H12.42V22.831zM91.948 77.107L7.586 77.036c-1.461-0.261-3.024-2.16-3.434-4.143h35.086c0.702 1.246 2.017 2.085 3.519 2.085h15.233c1.502 0 2.816-0.839 3.52-2.085h34.35C95.538 74.926 93.854 77.107 91.948 77.107zM38.84 37.498c-0.814-0.814-2.133-0.814-2.947 0l-8.689 8.689c-0.814 0.814-0.814 2.133 0 2.948l8.689 8.688c0.407 0.407 0.94 0.611 1.474 0.611s1.066-0.204 1.474-0.611c0.814-0.813 0.814-2.133 0-2.947l-7.216-7.215 7.216-7.216C39.654 39.631 39.654 38.312 38.84 37.498zM59.361 57.823c0.406 0.407 0.939 0.611 1.474 0.611 0.533 0 1.066-0.204 1.474-0.611l8.688-8.688c0.814-0.814 0.814-2.133 0-2.948l-8.688-8.689c-0.814-0.814-2.134-0.814-2.947 0-0.814 0.814-0.814 2.133 0 2.947l7.215 7.216-7.215 7.215C58.547 55.69 58.547 57.01 59.361 57.823zM41.793 62.275c0.299 0.148 0.617 0.22 0.931 0.22 0.765 0 1.5-0.422 1.866-1.152l12.506-25.011c0.515-1.03 0.098-2.281-0.933-2.796-1.029-0.513-2.281-0.098-2.797 0.932L40.861 59.479C40.346 60.509 40.763 61.76 41.793 62.275z" fill="#000000" data-fill-palette-color="quaternary"></path></g></g></svg></g></svg></g><g></g></svg></g></svg></g></svg></g><defs></defs></svg><rect width="512" height="320" fill="none" stroke="none" visibility="hidden"></rect></g></svg></g></svg>